<svg width="703" height="428" viewBox="0 0 703 428" fill="none" xmlns="http://www.w3.org/2000/svg">
<g id="envelope">
<g id="undraw_envelope_re_f5j4(1) 1" clip-path="url(#clip0_8_37)">
<path id="Vector" d="M458.781 178.956C460.348 178.673 461.978 178.651 463.558 178.891C465.138 179.131 466.628 179.626 467.924 180.343C469.219 181.06 470.289 181.98 471.057 183.039C471.825 184.098 472.274 185.27 472.37 186.472L510.091 194.397L494.699 204.359L461.239 195.307C458.525 195.294 455.912 194.538 453.894 193.181C451.877 191.825 450.595 189.963 450.292 187.947C449.989 185.932 450.686 183.903 452.25 182.246C453.815 180.589 456.138 179.418 458.781 178.955L458.781 178.956Z" fill="#FFB7B7"/>
<path id="Vector_2" d="M555.711 418.985L544.716 418.985L539.485 387.291L555.713 387.292L555.711 418.985Z" fill="#FFB7B7"/>
<path id="Vector_3" d="M558.515 426.95L523.063 426.949V426.614C523.063 423.879 524.517 421.256 527.104 419.322C529.692 417.389 533.202 416.302 536.862 416.302H536.862L558.515 416.303L558.515 426.95Z" fill="#101010"/>
<path id="Vector_4" d="M620.138 418.985L609.143 418.985L603.912 387.291L620.139 387.292L620.138 418.985Z" fill="#FFB7B7"/>
<path id="Vector_5" d="M622.942 426.95L587.489 426.949V426.614C587.49 423.879 588.944 421.256 591.531 419.322C594.119 417.389 597.629 416.302 601.288 416.302H601.289L622.942 416.303L622.942 426.95Z" fill="#101010"/>
<path id="Vector_6" d="M546.727 237.079L530.531 320.917L534.567 409.249L558.887 410.697L566.492 331.48L585.852 287.308L597.234 350.274L597.701 409.249L622.815 410.697L631.574 286.709L625.131 232.788L546.727 237.079Z" fill="#101010"/>
<path id="Vector_7" d="M593.571 124.83C607.722 124.83 619.193 116.258 619.193 105.683C619.193 95.1075 607.722 86.5347 593.571 86.5347C579.421 86.5347 567.95 95.1075 567.95 105.683C567.95 116.258 579.421 124.83 593.571 124.83Z" fill="#FFB7B7"/>
<path id="Vector_8" d="M577.779 135.245L549.493 241.74C549.493 241.74 597.116 251.955 617.979 242.525C638.841 233.095 629.493 203.984 629.493 203.984L625.672 154.451L618.611 141.925L612.62 131.585L577.779 135.245Z" fill="#CBCBCB"/>
<path id="Vector_9" d="M569.499 210.838L579.271 133.178L571.456 137.442L544.134 144.073L542.264 198.748L523.152 270.648C523.152 270.648 536.813 290.569 553.744 257.611L569.499 210.838Z" fill="#101010"/>
<path id="Vector_10" d="M557.283 152.25L544.134 144.073L514.582 192.049L481.604 186.651L480.046 201.206L527.826 215.337L560.387 181.461L557.283 152.25Z" fill="#101010"/>
<path id="Vector_11" d="M608.437 193.839L612.119 130.635L625.672 138.478L649.875 143.52L646.326 193.839L651.433 271.919L626.058 277.925L618.936 228.657L608.437 193.839Z" fill="#101010"/>
<path id="Vector_12" d="M610.065 244.718C610.349 243.532 610.977 242.407 611.906 241.423C612.834 240.438 614.041 239.617 615.439 239.019C616.838 238.42 618.395 238.058 620.002 237.958C621.608 237.858 623.224 238.022 624.737 238.439L649.604 215.81L655.626 230.346L631.088 249.606C629.982 251.458 628.005 252.943 625.533 253.779C623.06 254.614 620.263 254.743 617.671 254.141C615.08 253.538 612.874 252.246 611.473 250.509C610.071 248.773 609.57 246.712 610.065 244.718V244.718Z" fill="#FFB7B7"/>
<path id="Vector_13" d="M633.67 150.536L649.875 143.52L690.648 203.693L650.895 244.947L628.222 231.398L655.754 204.567L630.661 175.747L633.67 150.536Z" fill="#101010"/>
<path id="Vector_14" d="M617.669 90.3748L618.911 88.5065L612.661 86.1858C612.661 86.1858 605.766 77.8018 593.29 80.1579C580.813 82.514 575.2 83.9241 575.2 83.9241L568.966 86.2683L572.095 88.5949L566.482 90.005L570.232 91.3974L565.868 93.2717L568.217 102.88C568.217 102.88 572.118 95.5924 579.618 98.3772C587.118 101.162 600.837 96.9376 600.837 96.9376L612.756 114.176C612.756 114.176 615.214 108.133 619.598 109.744C619.598 109.744 630.798 96.4145 617.669 90.3748Z" fill="#101010"/>
<path id="Vector_15" d="M462.035 118.467H461.872L367.91 148.451L239.35 189.477C238.848 189.635 238.309 189.717 237.764 189.719C237.219 189.721 236.679 189.643 236.174 189.489L103.539 148.366L7.26823 118.516L7.12119 118.467H6.9573C5.4383 118.468 3.982 118.92 2.90791 119.722C1.83382 120.525 1.22966 121.614 1.22797 122.749V308.699C1.22966 309.835 1.83382 310.923 2.90791 311.726C3.982 312.528 5.4383 312.98 6.9573 312.981H462.035C463.554 312.98 465.011 312.528 466.085 311.726C467.159 310.923 467.763 309.835 467.765 308.699V122.749C467.763 121.614 467.159 120.525 466.085 119.722C465.011 118.92 463.554 118.468 462.035 118.467V118.467Z" fill="white"/>
<path id="Vector_16" d="M462.444 119.69C462.277 119.69 462.114 119.652 461.977 119.581L235.617 1.769C234.928 1.41214 234.11 1.22142 233.272 1.22249C232.433 1.22356 231.616 1.41635 230.928 1.77497L6.19946 119.579C6.02169 119.672 5.80184 119.709 5.5882 119.681C5.37456 119.653 5.18459 119.562 5.06002 119.429C4.93545 119.297 4.88647 119.132 4.92383 118.973C4.96118 118.813 5.08183 118.671 5.25927 118.578L229.988 0.773262C230.951 0.271287 232.095 0.00143935 233.269 -1.8265e-06C234.442 -0.001443 235.588 0.265589 236.553 0.765198L462.912 118.577C463.055 118.651 463.163 118.758 463.219 118.881C463.275 119.004 463.277 119.138 463.225 119.262C463.173 119.386 463.069 119.495 462.928 119.572C462.788 119.649 462.618 119.69 462.444 119.69L462.444 119.69Z" fill="#3F3D56"/>
<path id="Vector_17" d="M19.0409 123.867L233.494 5.08864L449.574 132.318L244.543 223.152L133.229 204.191L19.0409 123.867Z" fill="#E6E6E6"/>
<path id="Vector_18" d="M142.626 279.257H36.6806C36.03 279.258 35.3855 279.164 34.7838 278.979C34.1822 278.794 33.6352 278.522 33.1742 278.179C32.7131 277.836 32.3471 277.429 32.0971 276.98C31.847 276.531 31.7178 276.05 31.7169 275.563C31.7159 275.077 31.8432 274.596 32.0915 274.146C32.3398 273.697 32.7042 273.288 33.1638 272.944C33.6235 272.6 34.1694 272.327 34.7703 272.141C35.3713 271.955 36.0154 271.859 36.666 271.859H142.626C143.276 271.858 143.921 271.952 144.523 272.137C145.124 272.322 145.671 272.594 146.132 272.937C146.593 273.28 146.959 273.687 147.209 274.136C147.459 274.585 147.588 275.066 147.589 275.552C147.59 276.039 147.463 276.52 147.215 276.97C146.967 277.419 146.602 277.827 146.142 278.171C145.683 278.516 145.137 278.789 144.536 278.975C143.935 279.161 143.291 279.257 142.64 279.257H142.626Z" fill="#F79328"/>
<path id="Vector_19" d="M74.6913 263.353H36.6805C36.0299 263.355 35.3854 263.26 34.7837 263.075C34.1821 262.89 33.6351 262.619 33.1741 262.275C32.713 261.932 32.3471 261.525 32.097 261.076C31.847 260.627 31.7177 260.146 31.7168 259.66C31.7158 259.173 31.8431 258.692 32.0914 258.243C32.3397 257.793 32.7041 257.385 33.1637 257.041C33.6234 256.697 34.1693 256.424 34.7703 256.237C35.3712 256.051 36.0153 255.955 36.6659 255.955H74.6913C76.0028 255.955 77.2609 256.344 78.189 257.037C79.1172 257.729 79.6396 258.669 79.6416 259.649C79.6435 260.629 79.1248 261.57 78.1994 262.264C77.274 262.959 76.0175 263.35 74.706 263.353H74.6913Z" fill="#F79328"/>
<path id="Vector_20" d="M460.808 118.467H460.644L366.682 148.451L238.122 189.477C237.62 189.635 237.081 189.717 236.536 189.719C235.991 189.721 235.451 189.643 234.946 189.489L102.311 148.366L6.04039 118.516L5.89334 118.467H5.72936C4.21036 118.468 2.75407 118.92 1.67998 119.722C0.605886 120.525 0.00171985 121.614 3.05176e-05 122.749V308.699C0.00171985 309.835 0.605886 310.923 1.67998 311.726C2.75407 312.528 4.21036 312.98 5.72936 312.981H460.808C462.327 312.98 463.783 312.528 464.857 311.726C465.931 310.923 466.535 309.835 466.537 308.699V122.749C466.535 121.614 465.931 120.525 464.857 119.722C463.783 118.92 462.327 118.468 460.808 118.467ZM464.9 308.699C464.9 309.51 464.468 310.288 463.701 310.862C462.933 311.435 461.893 311.757 460.808 311.758H5.72936C4.64411 311.757 3.60343 311.435 2.83604 310.862C2.06865 310.288 1.63734 309.51 1.63691 308.699V122.749C1.63839 121.958 2.0489 121.198 2.78261 120.628C3.51632 120.058 4.51643 119.722 5.57389 119.69L102.311 149.687L234.316 190.621C235.745 191.055 237.346 191.049 238.769 190.602L366.682 149.779L460.971 119.69C462.027 119.724 463.024 120.061 463.756 120.631C464.488 121.201 464.897 121.959 464.9 122.749L464.9 308.699Z" fill="#3F3D56"/>
<g id="message">
<path id="Vector_21" d="M236.51 190.024C235.705 190.025 234.907 189.908 234.161 189.68L101.902 148.668V20.2922C101.903 19.157 102.508 18.0687 103.582 17.266C104.656 16.4633 106.112 16.0118 107.631 16.0105H361.362C362.881 16.0118 364.337 16.4633 365.411 17.266C366.485 18.0687 367.089 19.157 367.091 20.2922V148.758L366.842 148.837L238.929 189.66C238.163 189.901 237.341 190.025 236.51 190.024V190.024Z" fill="#F79328"/>
<path id="Vector_22" d="M215.919 63.9977H125.886C124.151 63.9954 122.489 63.4789 121.263 62.5614C120.038 61.644 119.349 60.4006 119.349 59.1043C119.349 57.8079 120.038 56.5646 121.263 55.6471C122.489 54.7297 124.151 54.2131 125.886 54.2108H215.919C217.654 54.2131 219.316 54.7297 220.542 55.6471C221.767 56.5646 222.456 57.8079 222.456 59.1043C222.456 60.4006 221.767 61.644 220.542 62.5614C219.316 63.4789 217.654 63.9954 215.919 63.9977V63.9977Z" fill="white"/>
<path id="Vector_23" d="M169.265 43.2006H125.886C124.149 43.2006 122.484 42.685 121.256 41.7673C120.028 40.8496 119.338 39.605 119.338 38.3071C119.338 37.0093 120.028 35.7647 121.256 34.847C122.484 33.9293 124.149 33.4137 125.886 33.4137H169.265C171.002 33.4137 172.668 33.9293 173.896 34.847C175.123 35.7647 175.813 37.0093 175.813 38.3071C175.813 39.605 175.123 40.8496 173.896 41.7673C172.668 42.685 171.002 43.2006 169.265 43.2006V43.2006Z" fill="white"/>
<path id="Vector_24" d="M301.834 112.932H164.329C162.592 112.932 160.927 112.417 159.699 111.499C158.471 110.581 157.781 109.336 157.781 108.039C157.781 106.741 158.471 105.496 159.699 104.578C160.927 103.661 162.592 103.145 164.329 103.145H301.834C303.571 103.145 305.237 103.661 306.465 104.578C307.692 105.496 308.382 106.741 308.382 108.039C308.382 109.336 307.692 110.581 306.465 111.499C305.237 112.417 303.571 112.932 301.834 112.932V112.932Z" fill="white"/>
<path id="Vector_25" d="M301.834 135.564H164.329C163.468 135.565 162.615 135.44 161.82 135.194C161.024 134.949 160.301 134.589 159.691 134.134C159.082 133.68 158.599 133.14 158.269 132.545C157.939 131.951 157.769 131.314 157.769 130.671C157.769 130.027 157.939 129.39 158.269 128.796C158.599 128.202 159.082 127.662 159.691 127.208C160.301 126.753 161.024 126.393 161.82 126.147C162.615 125.902 163.468 125.776 164.329 125.777H301.834C302.695 125.776 303.548 125.902 304.344 126.147C305.14 126.393 305.863 126.753 306.472 127.208C307.081 127.662 307.564 128.202 307.894 128.796C308.224 129.39 308.394 130.027 308.394 130.671C308.394 131.314 308.224 131.951 307.894 132.545C307.564 133.14 307.081 133.68 306.472 134.134C305.863 134.589 305.14 134.949 304.344 135.194C303.548 135.44 302.695 135.565 301.834 135.564V135.564Z" fill="white"/>
</g>
<path id="Vector_26" d="M702.001 427.723H439.307C439.042 427.723 438.788 427.645 438.6 427.505C438.413 427.365 438.308 427.175 438.308 426.977C438.308 426.779 438.413 426.589 438.6 426.449C438.788 426.309 439.042 426.231 439.307 426.231H702.001C702.266 426.231 702.52 426.309 702.707 426.449C702.895 426.589 703 426.779 703 426.977C703 427.175 702.895 427.365 702.707 427.505C702.52 427.645 702.266 427.723 702.001 427.723Z" fill="#CBCBCB"/>
</g>
</g>
<defs>
<clipPath id="clip0_8_37">
<rect width="703" height="428" fill="white"/>
</clipPath>
</defs>
</svg>
