<svg width="941" height="664" viewBox="0 0 941 664" fill="none" xmlns="http://www.w3.org/2000/svg">
<g id="programmer">
<path id="Vector" d="M649.051 265.09C660.99 265.09 670.668 255.125 670.668 242.833C670.668 230.542 660.99 220.577 649.051 220.577C637.113 220.577 627.435 230.542 627.435 242.833C627.435 255.125 637.113 265.09 649.051 265.09Z" fill="#F2F2F2"/>
<path id="Vector_2" d="M816.738 595.396C848.869 570.199 864.215 527.858 854.608 487.467C854.369 486.464 854.117 485.463 853.852 484.464C847.482 460.488 831.724 437.701 808.758 430.041C789.474 423.608 768.424 428.555 748.306 425.997C708.814 420.975 678.196 388.076 656.652 353.629C635.108 319.183 618.551 280.625 589.924 252.167C542.738 205.259 465.764 195.16 407.26 225.694C348.755 256.227 311.488 323.968 313.078 391.481C314.667 458.994 353.595 523.54 410.127 557.786C430.895 570.367 454.914 579.279 478.819 576.161C499.561 573.455 518.407 561.98 539.051 558.573C571.509 553.217 603.759 568.327 631.832 585.933C659.905 603.54 687.022 624.409 718.923 632.572C749.899 640.498 788.275 617.717 816.738 595.396Z" fill="#F8F8FA"/>
<path id="Vector_3" d="M786.032 227.083C785.296 226.6 784.552 226.142 783.817 225.676C762.56 212.277 739.776 201.392 715.936 193.246L710.408 268.402H675.364V182.275C673.158 181.825 670.935 181.4 668.712 181V268.402H627.067C604.141 268.402 582.154 259.426 565.943 243.449C549.732 227.472 540.625 205.803 540.625 183.208V183.208C538.393 183.682 536.179 184.191 533.964 184.732V268.402H500.045L494.779 196.736C470.279 205.996 447.021 218.174 425.52 232.998C425.148 233.248 424.776 233.506 424.413 233.756C422.545 235.047 420.702 236.363 418.868 237.696V524.419H518.835L517.068 500.302L507.348 367.891H703.097L693.376 500.302L691.61 524.419H790.469V229.982C788.998 228.999 787.519 228.033 786.032 227.083ZM533.964 346.024H505.742L500.527 274.966H533.964V346.024ZM668.712 346.024H621.311V344.616C621.311 343.94 621.176 343.27 620.913 342.644C620.65 342.019 620.264 341.451 619.778 340.973C619.293 340.495 618.716 340.116 618.081 339.858C617.446 339.599 616.766 339.467 616.079 339.468H595.472C594.786 339.468 594.107 339.601 593.473 339.86C592.839 340.118 592.263 340.497 591.778 340.976C591.293 341.454 590.908 342.021 590.646 342.646C590.383 343.271 590.249 343.94 590.249 344.616V346.024H540.625V274.966H668.712V346.024ZM675.364 346.024V274.966H709.926L704.711 346.024H675.364Z" fill="#F79328"/>
<path id="Vector_4" d="M278 542.999C285.033 551.579 292.64 559.642 300.766 567.13L892.234 567.964C900.36 560.476 907.967 552.413 915 543.833L278 542.999Z" fill="#F79328"/>
<path id="Vector_5" d="M679.094 465.73V537.168C679.095 538.078 679.446 538.951 680.071 539.595C680.697 540.239 681.544 540.601 682.429 540.601H785.25C786.134 540.601 786.982 540.239 787.607 539.595C788.232 538.951 788.584 538.078 788.585 537.168V465.73C788.583 464.821 788.23 463.949 787.605 463.306C786.98 462.663 786.133 462.302 785.25 462.301H682.429C681.545 462.302 680.698 462.663 680.073 463.306C679.448 463.949 679.096 464.821 679.094 465.73Z" fill="#3F3D56"/>
<path id="Vector_6" d="M681.506 466.619V536.287C681.507 536.773 681.695 537.239 682.029 537.583C682.363 537.927 682.816 538.121 683.288 538.122H784.394C784.866 538.121 785.319 537.927 785.653 537.583C785.987 537.239 786.175 536.773 786.176 536.287V466.619C786.176 466.132 785.989 465.665 785.654 465.32C785.32 464.976 784.867 464.781 784.394 464.78H683.288C682.815 464.781 682.362 464.976 682.028 465.32C681.694 465.665 681.506 466.132 681.506 466.619Z" fill="#101010"/>
<path id="Vector_7" d="M676.944 551.1C677.132 551.343 677.371 551.539 677.644 551.674C677.916 551.808 678.215 551.877 678.517 551.875H788.614C788.916 551.875 789.213 551.805 789.484 551.672C789.756 551.538 789.996 551.344 790.185 551.103C790.375 550.863 790.51 550.581 790.581 550.28C790.652 549.979 790.656 549.665 790.595 549.362L788.886 541.003C788.815 540.663 788.662 540.345 788.442 540.081C788.222 539.816 787.941 539.612 787.624 539.488C787.395 539.396 787.151 539.348 786.905 539.349H680.219C679.973 539.348 679.729 539.396 679.5 539.488C679.184 539.612 678.903 539.816 678.682 540.081C678.462 540.345 678.31 540.663 678.239 541.003L676.53 549.362C676.469 549.665 676.475 549.978 676.546 550.279C676.618 550.58 676.753 550.86 676.944 551.1Z" fill="#101010"/>
<path id="Vector_8" d="M783.128 542.949H785.728C785.946 542.949 786.123 542.766 786.123 542.542V541.261C786.123 541.036 785.946 540.854 785.728 540.854H783.128C782.909 540.854 782.732 541.036 782.732 541.261V542.542C782.732 542.766 782.909 542.949 783.128 542.949Z" fill="#3F3D56"/>
<path id="Vector_9" d="M776.346 542.949H778.946C779.165 542.949 779.342 542.766 779.342 542.542V541.261C779.342 541.036 779.165 540.854 778.946 540.854H776.346C776.127 540.854 775.951 541.036 775.951 541.261V542.542C775.951 542.766 776.127 542.949 776.346 542.949Z" fill="#3F3D56"/>
<path id="Vector_10" d="M769.564 542.949H772.164C772.383 542.949 772.56 542.766 772.56 542.542V541.261C772.56 541.036 772.383 540.854 772.164 540.854H769.564C769.346 540.854 769.169 541.036 769.169 541.261V542.542C769.169 542.766 769.346 542.949 769.564 542.949Z" fill="#3F3D56"/>
<path id="Vector_11" d="M762.782 542.949H765.382C765.601 542.949 765.778 542.766 765.778 542.542V541.261C765.778 541.036 765.601 540.854 765.382 540.854H762.782C762.564 540.854 762.387 541.036 762.387 541.261V542.542C762.387 542.766 762.564 542.949 762.782 542.949Z" fill="#3F3D56"/>
<path id="Vector_12" d="M756 542.949H758.601C758.819 542.949 758.996 542.766 758.996 542.542V541.261C758.996 541.036 758.819 540.854 758.601 540.854H756C755.782 540.854 755.605 541.036 755.605 541.261V542.542C755.605 542.766 755.782 542.949 756 542.949Z" fill="#3F3D56"/>
<path id="Vector_13" d="M749.218 542.949H751.819C752.037 542.949 752.214 542.766 752.214 542.542V541.261C752.214 541.036 752.037 540.854 751.819 540.854H749.218C749 540.854 748.823 541.036 748.823 541.261V542.542C748.823 542.766 749 542.949 749.218 542.949Z" fill="#3F3D56"/>
<path id="Vector_14" d="M742.436 542.949H745.037C745.255 542.949 745.432 542.766 745.432 542.542V541.261C745.432 541.036 745.255 540.854 745.037 540.854H742.436C742.218 540.854 742.041 541.036 742.041 541.261V542.542C742.041 542.766 742.218 542.949 742.436 542.949Z" fill="#3F3D56"/>
<path id="Vector_15" d="M735.654 542.949H738.255C738.473 542.949 738.65 542.766 738.65 542.542V541.261C738.65 541.036 738.473 540.854 738.255 540.854H735.654C735.436 540.854 735.259 541.036 735.259 541.261V542.542C735.259 542.766 735.436 542.949 735.654 542.949Z" fill="#3F3D56"/>
<path id="Vector_16" d="M728.872 542.949H731.473C731.691 542.949 731.868 542.766 731.868 542.542V541.261C731.868 541.036 731.691 540.854 731.473 540.854H728.872C728.654 540.854 728.477 541.036 728.477 541.261V542.542C728.477 542.766 728.654 542.949 728.872 542.949Z" fill="#3F3D56"/>
<path id="Vector_17" d="M722.091 542.949H724.691C724.909 542.949 725.086 542.766 725.086 542.542V541.261C725.086 541.036 724.909 540.854 724.691 540.854H722.091C721.872 540.854 721.695 541.036 721.695 541.261V542.542C721.695 542.766 721.872 542.949 722.091 542.949Z" fill="#3F3D56"/>
<path id="Vector_18" d="M715.309 542.949H717.909C718.127 542.949 718.304 542.766 718.304 542.542V541.261C718.304 541.036 718.127 540.854 717.909 540.854H715.309C715.09 540.854 714.913 541.036 714.913 541.261V542.542C714.913 542.766 715.09 542.949 715.309 542.949Z" fill="#3F3D56"/>
<path id="Vector_19" d="M708.527 542.949H711.127C711.345 542.949 711.522 542.766 711.522 542.542V541.261C711.522 541.036 711.345 540.854 711.127 540.854H708.527C708.308 540.854 708.131 541.036 708.131 541.261V542.542C708.131 542.766 708.308 542.949 708.527 542.949Z" fill="#3F3D56"/>
<path id="Vector_20" d="M701.745 542.949H704.345C704.564 542.949 704.74 542.766 704.74 542.542V541.261C704.74 541.036 704.564 540.854 704.345 540.854H701.745C701.526 540.854 701.35 541.036 701.35 541.261V542.542C701.35 542.766 701.526 542.949 701.745 542.949Z" fill="#3F3D56"/>
<path id="Vector_21" d="M694.963 542.949H697.563C697.782 542.949 697.959 542.766 697.959 542.542V541.261C697.959 541.036 697.782 540.854 697.563 540.854H694.963C694.745 540.854 694.568 541.036 694.568 541.261V542.542C694.568 542.766 694.745 542.949 694.963 542.949Z" fill="#3F3D56"/>
<path id="Vector_22" d="M688.181 542.949H690.781C691 542.949 691.177 542.766 691.177 542.542V541.261C691.177 541.036 691 540.854 690.781 540.854H688.181C687.963 540.854 687.786 541.036 687.786 541.261V542.542C687.786 542.766 687.963 542.949 688.181 542.949Z" fill="#3F3D56"/>
<path id="Vector_23" d="M681.399 542.949H684C684.218 542.949 684.395 542.766 684.395 542.542V541.261C684.395 541.036 684.218 540.854 684 540.854H681.399C681.181 540.854 681.004 541.036 681.004 541.261V542.542C681.004 542.766 681.181 542.949 681.399 542.949Z" fill="#3F3D56"/>
<path id="Vector_24" d="M717.395 542.095H719.995C720.214 542.095 720.391 541.913 720.391 541.688V540.407C720.391 540.182 720.214 540 719.995 540H717.395C717.177 540 717 540.182 717 540.407V541.688C717 541.913 717.177 542.095 717.395 542.095Z" fill="#3F3D56"/>
<path id="Vector_25" d="M776.426 546.44H779.026C779.245 546.44 779.422 546.258 779.422 546.033V544.752C779.422 544.527 779.245 544.345 779.026 544.345H776.426C776.208 544.345 776.031 544.527 776.031 544.752V546.033C776.031 546.258 776.208 546.44 776.426 546.44Z" fill="#3F3D56"/>
<path id="Vector_26" d="M769.644 546.44H772.244C772.463 546.44 772.64 546.258 772.64 546.033V544.752C772.64 544.527 772.463 544.345 772.244 544.345H769.644C769.426 544.345 769.249 544.527 769.249 544.752V546.033C769.249 546.258 769.426 546.44 769.644 546.44Z" fill="#3F3D56"/>
<path id="Vector_27" d="M762.862 546.44H765.463C765.681 546.44 765.858 546.258 765.858 546.033V544.752C765.858 544.527 765.681 544.345 765.463 544.345H762.862C762.644 544.345 762.467 544.527 762.467 544.752V546.033C762.467 546.258 762.644 546.44 762.862 546.44Z" fill="#3F3D56"/>
<path id="Vector_28" d="M756.08 546.44H758.681C758.899 546.44 759.076 546.258 759.076 546.033V544.752C759.076 544.527 758.899 544.345 758.681 544.345H756.08C755.862 544.345 755.685 544.527 755.685 544.752V546.033C755.685 546.258 755.862 546.44 756.08 546.44Z" fill="#3F3D56"/>
<path id="Vector_29" d="M749.298 546.44H751.899C752.117 546.44 752.294 546.258 752.294 546.033V544.752C752.294 544.527 752.117 544.345 751.899 544.345H749.298C749.08 544.345 748.903 544.527 748.903 544.752V546.033C748.903 546.258 749.08 546.44 749.298 546.44Z" fill="#3F3D56"/>
<path id="Vector_30" d="M742.516 546.44H745.117C745.335 546.44 745.512 546.258 745.512 546.033V544.752C745.512 544.527 745.335 544.345 745.117 544.345H742.516C742.298 544.345 742.121 544.527 742.121 544.752V546.033C742.121 546.258 742.298 546.44 742.516 546.44Z" fill="#3F3D56"/>
<path id="Vector_31" d="M735.734 546.44H738.335C738.553 546.44 738.73 546.258 738.73 546.033V544.752C738.73 544.527 738.553 544.345 738.335 544.345H735.734C735.516 544.345 735.339 544.527 735.339 544.752V546.033C735.339 546.258 735.516 546.44 735.734 546.44Z" fill="#3F3D56"/>
<path id="Vector_32" d="M728.953 546.44H731.553C731.771 546.44 731.948 546.258 731.948 546.033V544.752C731.948 544.527 731.771 544.345 731.553 544.345H728.953C728.734 544.345 728.557 544.527 728.557 544.752V546.033C728.557 546.258 728.734 546.44 728.953 546.44Z" fill="#3F3D56"/>
<path id="Vector_33" d="M722.171 546.44H724.771C724.989 546.44 725.166 546.258 725.166 546.033V544.752C725.166 544.527 724.989 544.345 724.771 544.345H722.171C721.952 544.345 721.775 544.527 721.775 544.752V546.033C721.775 546.258 721.952 546.44 722.171 546.44Z" fill="#3F3D56"/>
<path id="Vector_34" d="M715.389 546.44H717.989C718.207 546.44 718.384 546.258 718.384 546.033V544.752C718.384 544.527 718.207 544.345 717.989 544.345H715.389C715.17 544.345 714.993 544.527 714.993 544.752V546.033C714.993 546.258 715.17 546.44 715.389 546.44Z" fill="#3F3D56"/>
<path id="Vector_35" d="M708.607 546.44H711.207C711.426 546.44 711.603 546.258 711.603 546.033V544.752C711.603 544.527 711.426 544.345 711.207 544.345H708.607C708.389 544.345 708.212 544.527 708.212 544.752V546.033C708.212 546.258 708.389 546.44 708.607 546.44Z" fill="#3F3D56"/>
<path id="Vector_36" d="M701.825 546.44H704.425C704.644 546.44 704.821 546.258 704.821 546.033V544.752C704.821 544.527 704.644 544.345 704.425 544.345H701.825C701.607 544.345 701.43 544.527 701.43 544.752V546.033C701.43 546.258 701.607 546.44 701.825 546.44Z" fill="#3F3D56"/>
<path id="Vector_37" d="M695.043 546.44H697.643C697.862 546.44 698.039 546.258 698.039 546.033V544.752C698.039 544.527 697.862 544.345 697.643 544.345H695.043C694.825 544.345 694.648 544.527 694.648 544.752V546.033C694.648 546.258 694.825 546.44 695.043 546.44Z" fill="#3F3D56"/>
<path id="Vector_38" d="M688.261 546.44H690.862C691.08 546.44 691.257 546.258 691.257 546.033V544.752C691.257 544.527 691.08 544.345 690.862 544.345H688.261C688.043 544.345 687.866 544.527 687.866 544.752V546.033C687.866 546.258 688.043 546.44 688.261 546.44Z" fill="#3F3D56"/>
<path id="Vector_39" d="M681.479 546.44H684.08C684.298 546.44 684.475 546.258 684.475 546.033V544.752C684.475 544.527 684.298 544.345 684.08 544.345H681.479C681.261 544.345 681.084 544.527 681.084 544.752V546.033C681.084 546.258 681.261 546.44 681.479 546.44Z" fill="#3F3D56"/>
<path id="Vector_40" d="M726.918 550.629H753.255C753.473 550.629 753.65 550.447 753.65 550.222V548.942C753.65 548.717 753.473 548.535 753.255 548.535H726.918C726.7 548.535 726.523 548.717 726.523 548.942V550.222C726.523 550.447 726.7 550.629 726.918 550.629Z" fill="#3F3D56"/>
<path id="Vector_41" d="M699.015 480.022H696.712C696.014 480.022 695.449 480.604 695.449 481.323C695.449 482.042 696.014 482.624 696.712 482.624H699.015C699.713 482.624 700.278 482.042 700.278 481.323C700.278 480.604 699.713 480.022 699.015 480.022Z" fill="white"/>
<path id="Vector_42" d="M725.345 480.022H723.043C722.345 480.022 721.779 480.604 721.779 481.323C721.779 482.042 722.345 482.624 723.043 482.624H725.345C726.043 482.624 726.609 482.042 726.609 481.323C726.609 480.604 726.043 480.022 725.345 480.022Z" fill="white"/>
<path id="Vector_43" d="M732.805 480.022H730.503C729.805 480.022 729.239 480.604 729.239 481.323C729.239 482.042 729.805 482.624 730.503 482.624H732.805C733.503 482.624 734.069 482.042 734.069 481.323C734.069 480.604 733.503 480.022 732.805 480.022Z" fill="white"/>
<path id="Vector_44" d="M718.183 479.805H703.874C703.176 479.805 702.61 480.387 702.61 481.106C702.61 481.825 703.176 482.407 703.874 482.407H718.183C718.881 482.407 719.447 481.825 719.447 481.106C719.447 480.387 718.881 479.805 718.183 479.805Z" fill="white"/>
<path id="Vector_45" d="M753.29 479.805H738.981C738.283 479.805 737.717 480.387 737.717 481.106C737.717 481.825 738.283 482.407 738.981 482.407H753.29C753.988 482.407 754.554 481.825 754.554 481.106C754.554 480.387 753.988 479.805 753.29 479.805Z" fill="white"/>
<path id="Vector_46" d="M706.036 485.896H703.734C703.036 485.896 702.47 486.478 702.47 487.197C702.47 487.915 703.036 488.498 703.734 488.498H706.036C706.734 488.498 707.3 487.915 707.3 487.197C707.3 486.478 706.734 485.896 706.036 485.896Z" fill="white"/>
<path id="Vector_47" d="M732.366 485.896H730.064C729.366 485.896 728.8 486.478 728.8 487.197C728.8 487.915 729.366 488.498 730.064 488.498H732.366C733.064 488.498 733.63 487.915 733.63 487.197C733.63 486.478 733.064 485.896 732.366 485.896Z" fill="white"/>
<path id="Vector_48" d="M739.826 485.896H737.524C736.826 485.896 736.26 486.478 736.26 487.197C736.26 487.915 736.826 488.498 737.524 488.498H739.826C740.524 488.498 741.09 487.915 741.09 487.197C741.09 486.478 740.524 485.896 739.826 485.896Z" fill="white"/>
<path id="Vector_49" d="M725.204 485.679H710.896C710.198 485.679 709.632 486.261 709.632 486.98C709.632 487.698 710.198 488.281 710.896 488.281H725.204C725.902 488.281 726.468 487.698 726.468 486.98C726.468 486.261 725.902 485.679 725.204 485.679Z" fill="white"/>
<path id="Vector_50" d="M760.311 485.679H746.003C745.305 485.679 744.739 486.261 744.739 486.98C744.739 487.698 745.305 488.281 746.003 488.281H760.311C761.009 488.281 761.575 487.698 761.575 486.98C761.575 486.261 761.009 485.679 760.311 485.679Z" fill="white"/>
<path id="Vector_51" d="M713.057 491.769H710.755C710.057 491.769 709.491 492.352 709.491 493.07C709.491 493.789 710.057 494.372 710.755 494.372H713.057C713.755 494.372 714.321 493.789 714.321 493.07C714.321 492.352 713.755 491.769 713.057 491.769Z" fill="white"/>
<path id="Vector_52" d="M739.388 491.769H737.085C736.387 491.769 735.822 492.352 735.822 493.07C735.822 493.789 736.387 494.372 737.085 494.372H739.388C740.086 494.372 740.651 493.789 740.651 493.07C740.651 492.352 740.086 491.769 739.388 491.769Z" fill="white"/>
<path id="Vector_53" d="M746.848 491.769H744.546C743.848 491.769 743.282 492.352 743.282 493.07C743.282 493.789 743.848 494.372 744.546 494.372H746.848C747.546 494.372 748.112 493.789 748.112 493.07C748.112 492.352 747.546 491.769 746.848 491.769Z" fill="white"/>
<path id="Vector_54" d="M732.226 491.552H717.917C717.219 491.552 716.653 492.135 716.653 492.853C716.653 493.572 717.219 494.155 717.917 494.155H732.226C732.924 494.155 733.49 493.572 733.49 492.853C733.49 492.135 732.924 491.552 732.226 491.552Z" fill="white"/>
<path id="Vector_55" d="M767.333 491.552H753.024C752.326 491.552 751.76 492.135 751.76 492.853C751.76 493.572 752.326 494.155 753.024 494.155H767.333C768.031 494.155 768.596 493.572 768.596 492.853C768.596 492.135 768.031 491.552 767.333 491.552Z" fill="white"/>
<path id="Vector_56" d="M720.079 497.643H717.777C717.079 497.643 716.513 498.226 716.513 498.944C716.513 499.663 717.079 500.245 717.777 500.245H720.079C720.777 500.245 721.343 499.663 721.343 498.944C721.343 498.226 720.777 497.643 720.079 497.643Z" fill="white"/>
<path id="Vector_57" d="M746.409 497.643H744.107C743.409 497.643 742.843 498.226 742.843 498.944C742.843 499.663 743.409 500.245 744.107 500.245H746.409C747.107 500.245 747.673 499.663 747.673 498.944C747.673 498.226 747.107 497.643 746.409 497.643Z" fill="white"/>
<path id="Vector_58" d="M753.869 497.643H751.567C750.869 497.643 750.303 498.226 750.303 498.944C750.303 499.663 750.869 500.245 751.567 500.245H753.869C754.567 500.245 755.133 499.663 755.133 498.944C755.133 498.226 754.567 497.643 753.869 497.643Z" fill="white"/>
<path id="Vector_59" d="M739.247 497.426H724.938C724.24 497.426 723.675 498.008 723.675 498.727C723.675 499.446 724.24 500.028 724.938 500.028H739.247C739.945 500.028 740.511 499.446 740.511 498.727C740.511 498.008 739.945 497.426 739.247 497.426Z" fill="white"/>
<path id="Vector_60" d="M725.345 520.999H723.043C722.345 520.999 721.779 521.582 721.779 522.3C721.779 523.019 722.345 523.602 723.043 523.602H725.345C726.043 523.602 726.609 523.019 726.609 522.3C726.609 521.582 726.043 520.999 725.345 520.999Z" fill="white"/>
<path id="Vector_61" d="M732.805 520.999H730.503C729.805 520.999 729.239 521.582 729.239 522.3C729.239 523.019 729.805 523.602 730.503 523.602H732.805C733.503 523.602 734.069 523.019 734.069 522.3C734.069 521.582 733.503 520.999 732.805 520.999Z" fill="white"/>
<path id="Vector_62" d="M753.29 521.216H738.981C738.283 521.216 737.717 521.799 737.717 522.517C737.717 523.236 738.283 523.818 738.981 523.818H753.29C753.988 523.818 754.554 523.236 754.554 522.517C754.554 521.799 753.988 521.216 753.29 521.216Z" fill="white"/>
<path id="Vector_63" d="M699.015 520.999H696.712C696.014 520.999 695.449 521.582 695.449 522.3C695.449 523.019 696.014 523.602 696.712 523.602H699.015C699.713 523.602 700.278 523.019 700.278 522.3C700.278 521.582 699.713 520.999 699.015 520.999Z" fill="white"/>
<path id="Vector_64" d="M718.183 521.216H703.874C703.176 521.216 702.61 521.799 702.61 522.517C702.61 523.236 703.176 523.818 703.874 523.818H718.183C718.881 523.818 719.447 523.236 719.447 522.517C719.447 521.799 718.881 521.216 718.183 521.216Z" fill="white"/>
<path id="Vector_65" d="M706.036 515.125H703.734C703.036 515.125 702.47 515.708 702.47 516.427C702.47 517.145 703.036 517.728 703.734 517.728H706.036C706.734 517.728 707.3 517.145 707.3 516.427C707.3 515.708 706.734 515.125 706.036 515.125Z" fill="white"/>
<path id="Vector_66" d="M732.366 515.125H730.064C729.366 515.125 728.8 515.708 728.8 516.427C728.8 517.145 729.366 517.728 730.064 517.728H732.366C733.064 517.728 733.63 517.145 733.63 516.427C733.63 515.708 733.064 515.125 732.366 515.125Z" fill="white"/>
<path id="Vector_67" d="M739.826 515.125H737.524C736.826 515.125 736.26 515.708 736.26 516.427C736.26 517.145 736.826 517.728 737.524 517.728H739.826C740.524 517.728 741.09 517.145 741.09 516.427C741.09 515.708 740.524 515.125 739.826 515.125Z" fill="white"/>
<path id="Vector_68" d="M725.204 515.342H710.896C710.198 515.342 709.632 515.925 709.632 516.644C709.632 517.362 710.198 517.945 710.896 517.945H725.204C725.902 517.945 726.468 517.362 726.468 516.644C726.468 515.925 725.902 515.342 725.204 515.342Z" fill="white"/>
<path id="Vector_69" d="M713.057 509.252H710.755C710.057 509.252 709.491 509.834 709.491 510.553C709.491 511.272 710.057 511.854 710.755 511.854H713.057C713.755 511.854 714.321 511.272 714.321 510.553C714.321 509.834 713.755 509.252 713.057 509.252Z" fill="white"/>
<path id="Vector_70" d="M739.388 509.252H737.085C736.387 509.252 735.822 509.834 735.822 510.553C735.822 511.272 736.387 511.854 737.085 511.854H739.388C740.086 511.854 740.651 511.272 740.651 510.553C740.651 509.834 740.086 509.252 739.388 509.252Z" fill="white"/>
<path id="Vector_71" d="M746.848 509.252H744.546C743.848 509.252 743.282 509.834 743.282 510.553C743.282 511.272 743.848 511.854 744.546 511.854H746.848C747.546 511.854 748.112 511.272 748.112 510.553C748.112 509.834 747.546 509.252 746.848 509.252Z" fill="white"/>
<path id="Vector_72" d="M732.226 509.469H717.917C717.219 509.469 716.653 510.051 716.653 510.77C716.653 511.489 717.219 512.071 717.917 512.071H732.226C732.924 512.071 733.49 511.489 733.49 510.77C733.49 510.051 732.924 509.469 732.226 509.469Z" fill="white"/>
<path id="Vector_73" d="M720.079 503.378H717.777C717.079 503.378 716.513 503.961 716.513 504.679C716.513 505.398 717.079 505.98 717.777 505.98H720.079C720.777 505.98 721.343 505.398 721.343 504.679C721.343 503.961 720.777 503.378 720.079 503.378Z" fill="white"/>
<path id="Vector_74" d="M746.409 503.378H744.107C743.409 503.378 742.843 503.961 742.843 504.679C742.843 505.398 743.409 505.98 744.107 505.98H746.409C747.107 505.98 747.673 505.398 747.673 504.679C747.673 503.961 747.107 503.378 746.409 503.378Z" fill="white"/>
<path id="Vector_75" d="M753.869 503.378H751.567C750.869 503.378 750.303 503.961 750.303 504.679C750.303 505.398 750.869 505.98 751.567 505.98H753.869C754.567 505.98 755.133 505.398 755.133 504.679C755.133 503.961 754.567 503.378 753.869 503.378Z" fill="white"/>
<path id="Vector_76" d="M739.247 503.595H724.938C724.24 503.595 723.675 504.178 723.675 504.896C723.675 505.615 724.24 506.197 724.938 506.197H739.247C739.945 506.197 740.511 505.615 740.511 504.896C740.511 504.178 739.945 503.595 739.247 503.595Z" fill="white"/>
<path id="Vector_77" d="M433.19 462.304V547.792H491.359V462.304C491.36 461.689 491.169 461.09 490.815 460.595C490.461 460.1 489.962 459.735 489.391 459.553C489.122 459.462 488.841 459.417 488.557 459.42H435.999C435.631 459.419 435.266 459.493 434.925 459.638C434.584 459.782 434.275 459.995 434.014 460.262C433.753 460.53 433.546 460.848 433.404 461.199C433.263 461.549 433.19 461.925 433.19 462.304ZM455.891 491.678C455.906 489.993 456.567 488.382 457.729 487.195C458.892 486.009 460.463 485.344 462.1 485.344C463.737 485.344 465.308 486.009 466.471 487.195C467.634 488.382 468.294 489.993 468.31 491.678V501.597C468.301 503.287 467.643 504.905 466.48 506.097C465.316 507.289 463.741 507.958 462.1 507.958C460.459 507.958 458.884 507.289 457.72 506.097C456.557 504.905 455.899 503.287 455.891 501.597V491.678Z" fill="#101010"/>
<path id="Vector_78" d="M433.012 545.058V553.302C433.013 553.729 433.178 554.138 433.47 554.441C433.763 554.743 434.159 554.915 434.574 554.919H489.974C490.389 554.916 490.787 554.745 491.08 554.442C491.372 554.139 491.537 553.729 491.537 553.302V545.058H433.012Z" fill="#3F3D56"/>
<path id="Vector_79" d="M341.682 333.505V489.594C341.684 491.583 342.452 493.49 343.818 494.897C345.184 496.303 347.036 497.094 348.968 497.096H573.629C575.561 497.094 577.413 496.303 578.779 494.897C580.146 493.49 580.914 491.583 580.915 489.594V333.505C580.911 331.518 580.141 329.613 578.776 328.209C577.41 326.804 575.559 326.014 573.629 326.012H348.968C347.038 326.014 345.187 326.804 343.822 328.209C342.456 329.613 341.687 331.518 341.682 333.505Z" fill="#101010"/>
<path id="Vector_80" d="M348.097 337.018V489.239C348.099 490.302 348.51 491.32 349.24 492.072C349.97 492.823 350.959 493.246 351.991 493.248H572.903C573.936 493.246 574.925 492.823 575.655 492.072C576.385 491.32 576.796 490.302 576.798 489.239V337.018C576.797 335.954 576.387 334.933 575.657 334.18C574.927 333.427 573.937 333.002 572.903 333H351.991C350.958 333.002 349.967 333.427 349.237 334.18C348.507 334.933 348.097 335.954 348.097 337.018Z" fill="white"/>
<path id="Vector_81" d="M387.95 554.36C388.175 554.65 388.461 554.884 388.786 555.045C389.111 555.205 389.468 555.287 389.828 555.285H521.257C521.616 555.285 521.971 555.202 522.295 555.043C522.62 554.883 522.906 554.651 523.132 554.364C523.358 554.077 523.52 553.741 523.604 553.381C523.689 553.021 523.694 552.647 523.621 552.285L521.581 542.307C521.496 541.9 521.314 541.522 521.051 541.206C520.788 540.89 520.452 540.647 520.075 540.498C519.801 540.388 519.51 540.331 519.217 540.332H391.86C391.567 540.331 391.276 540.388 391.002 540.498C390.625 540.647 390.289 540.89 390.026 541.206C389.763 541.522 389.581 541.9 389.496 542.307L387.456 552.285C387.384 552.647 387.39 553.021 387.476 553.38C387.561 553.739 387.723 554.074 387.95 554.36Z" fill="#101010"/>
<path id="Vector_82" d="M564.59 352.399H357.883C357.668 352.394 357.464 352.303 357.313 352.144C357.163 351.986 357.079 351.774 357.079 351.553C357.079 351.331 357.163 351.119 357.313 350.961C357.464 350.802 357.668 350.711 357.883 350.706H564.59C564.804 350.711 565.009 350.802 565.159 350.961C565.309 351.119 565.393 351.331 565.393 351.553C565.393 351.774 565.309 351.986 565.159 352.144C565.009 352.303 564.804 352.394 564.59 352.399Z" fill="#101010"/>
<path id="Vector_83" d="M371.954 346.385C374.614 346.385 376.771 344.115 376.771 341.315C376.771 338.514 374.614 336.244 371.954 336.244C369.293 336.244 367.136 338.514 367.136 341.315C367.136 344.115 369.293 346.385 371.954 346.385Z" fill="#101010"/>
<path id="Vector_84" d="M388.596 346.385C391.256 346.385 393.413 344.115 393.413 341.315C393.413 338.514 391.256 336.244 388.596 336.244C385.935 336.244 383.778 338.514 383.778 341.315C383.778 344.115 385.935 346.385 388.596 346.385Z" fill="#101010"/>
<path id="Vector_85" d="M405.237 346.385C407.898 346.385 410.055 344.115 410.055 341.315C410.055 338.514 407.898 336.244 405.237 336.244C402.577 336.244 400.42 338.514 400.42 341.315C400.42 344.115 402.577 346.385 405.237 346.385Z" fill="#101010"/>
<path id="Vector_86" d="M554.568 337.498H542.748C542.515 337.504 542.292 337.603 542.129 337.775C541.966 337.947 541.874 338.178 541.874 338.419C541.874 338.66 541.966 338.891 542.129 339.063C542.292 339.235 542.515 339.334 542.748 339.34H554.568C554.803 339.337 555.028 339.238 555.193 339.066C555.358 338.893 555.45 338.661 555.45 338.419C555.45 338.177 555.358 337.945 555.193 337.772C555.028 337.6 554.803 337.501 554.568 337.498Z" fill="#101010"/>
<path id="Vector_87" d="M554.568 340.957H542.748C542.514 340.962 542.292 341.062 542.128 341.234C541.965 341.406 541.873 341.637 541.873 341.878C541.873 342.119 541.965 342.35 542.128 342.522C542.292 342.695 542.514 342.794 542.748 342.799H554.568C554.804 342.796 555.028 342.698 555.194 342.526C555.359 342.353 555.452 342.121 555.452 341.878C555.452 341.636 555.359 341.403 555.194 341.231C555.028 341.058 554.804 340.96 554.568 340.957Z" fill="#101010"/>
<path id="Vector_88" d="M554.568 344.416H542.748C542.515 344.422 542.292 344.521 542.129 344.694C541.966 344.866 541.874 345.097 541.874 345.337C541.874 345.578 541.966 345.809 542.129 345.981C542.292 346.153 542.515 346.253 542.748 346.258H554.568C554.803 346.255 555.028 346.156 555.193 345.984C555.358 345.812 555.45 345.579 555.45 345.337C555.45 345.095 555.358 344.863 555.193 344.691C555.028 344.518 554.803 344.42 554.568 344.416Z" fill="#101010"/>
<path id="Vector_89" d="M839.527 548.676C839.883 549.745 840.56 550.67 841.459 551.319C842.359 551.968 843.435 552.306 844.532 552.286L865.98 551.718C867.086 551.695 868.155 551.305 869.028 550.606C869.901 549.906 870.53 548.934 870.822 547.836L873.857 514.421C874.934 514.924 876.106 515.172 877.288 515.147C878.315 515.121 879.327 514.886 880.265 514.457C881.204 514.028 882.052 513.413 882.76 512.646C883.467 511.88 884.022 510.978 884.391 509.991C884.76 509.004 884.937 507.952 884.911 506.895C884.885 505.837 884.657 504.796 884.241 503.829C883.824 502.863 883.226 501.99 882.482 501.261C881.738 500.532 880.861 499.962 879.903 499.582C878.944 499.202 877.922 499.02 876.895 499.046C876.423 499.045 875.952 499.095 875.49 499.197C874.987 498.637 874.377 498.192 873.697 497.89C873.017 497.588 872.284 497.436 871.544 497.444L838.553 498.321C838.279 498.331 838.007 498.366 837.739 498.425C837.015 498.564 836.329 498.861 835.726 499.295C835.124 499.73 834.618 500.293 834.245 500.946C833.871 501.598 833.637 502.326 833.559 503.079C833.482 503.833 833.561 504.595 833.794 505.314L839.527 548.676ZM874.479 512.153L876.639 504.19C876.885 503.27 876.89 502.3 876.656 501.377C876.76 501.377 876.853 501.326 876.958 501.326C878.438 501.294 879.871 501.868 880.941 502.923C882.011 503.977 882.632 505.425 882.666 506.95C882.701 508.474 882.147 509.951 881.126 511.055C880.105 512.16 878.7 512.803 877.22 512.843C876.262 512.873 875.315 512.635 874.479 512.153Z" fill="#101010"/>
<path id="Vector_90" d="M837.739 498.425C838.442 502.563 846.344 505.471 855.846 504.966C864.584 504.551 871.728 501.392 873.037 497.649C872.553 497.501 872.049 497.432 871.544 497.444L838.553 498.321C838.279 498.331 838.007 498.366 837.739 498.425Z" fill="#101010"/>
<path id="Vector_91" d="M857.587 530.314C857.631 530.303 857.672 530.284 857.709 530.259L862.367 527.12C862.423 527.082 862.47 527.031 862.502 526.97C862.534 526.909 862.551 526.841 862.551 526.772C862.551 526.702 862.534 526.634 862.502 526.574C862.47 526.513 862.424 526.461 862.367 526.423L857.526 523.158C857.482 523.128 857.432 523.107 857.38 523.097C857.327 523.086 857.274 523.087 857.221 523.098C857.169 523.109 857.12 523.13 857.076 523.161C857.032 523.192 856.994 523.232 856.965 523.277C856.935 523.323 856.915 523.375 856.905 523.429C856.896 523.482 856.896 523.538 856.907 523.592C856.918 523.645 856.939 523.696 856.969 523.741C856.999 523.787 857.038 523.825 857.083 523.855L861.407 526.771L857.266 529.562C857.186 529.616 857.127 529.697 857.1 529.792C857.073 529.886 857.079 529.988 857.117 530.078C857.156 530.168 857.224 530.241 857.31 530.285C857.396 530.328 857.494 530.339 857.587 530.314Z" fill="#6C63FF"/>
<path id="Vector_92" d="M850.231 530.664C850.309 530.643 850.379 530.599 850.433 530.537C850.487 530.476 850.522 530.399 850.533 530.316C850.543 530.234 850.53 530.15 850.495 530.076C850.459 530.001 850.403 529.939 850.333 529.898L846.04 527.364L850.189 524.19C850.232 524.158 850.268 524.117 850.295 524.07C850.322 524.023 850.34 523.971 850.348 523.917C850.356 523.863 850.353 523.808 850.34 523.755C850.327 523.702 850.304 523.652 850.273 523.608C850.241 523.564 850.201 523.527 850.156 523.499C850.11 523.471 850.06 523.452 850.007 523.444C849.954 523.436 849.901 523.439 849.849 523.452C849.798 523.466 849.749 523.489 849.707 523.522L845.061 527.075C845.007 527.116 844.964 527.17 844.935 527.233C844.907 527.296 844.894 527.365 844.898 527.434C844.902 527.503 844.922 527.57 844.958 527.629C844.993 527.688 845.042 527.736 845.101 527.771L849.93 530.621C850.021 530.675 850.129 530.69 850.231 530.664Z" fill="#6C63FF"/>
<path id="Vector_93" d="M857.124 533.065C857.163 533.055 857.201 533.039 857.235 533.017C857.28 532.988 857.32 532.951 857.351 532.907C857.383 532.863 857.406 532.813 857.418 532.759C857.431 532.706 857.433 532.651 857.425 532.597C857.417 532.543 857.398 532.491 857.371 532.444L850.768 521.268C850.712 521.173 850.622 521.106 850.518 521.08C850.413 521.054 850.303 521.072 850.212 521.129C850.12 521.187 850.054 521.279 850.029 521.386C850.004 521.494 850.021 521.607 850.076 521.702L856.679 532.878C856.724 532.954 856.791 533.013 856.872 533.047C856.952 533.08 857.04 533.087 857.124 533.065Z" fill="#6C63FF"/>
<path id="Vector_94" d="M485.934 398.41H450.158C448.698 398.41 447.515 399.628 447.515 401.131V404.729C447.515 406.232 448.698 407.45 450.158 407.45H485.934C487.394 407.45 488.577 406.232 488.577 404.729V401.131C488.577 399.628 487.394 398.41 485.934 398.41Z" fill="#101010"/>
<path id="Vector_95" d="M506.788 416.491H429.304C427.844 416.491 426.661 417.709 426.661 419.211V422.81C426.661 424.313 427.844 425.531 429.304 425.531H506.788C508.247 425.531 509.43 424.313 509.43 422.81V419.211C509.43 417.709 508.247 416.491 506.788 416.491Z" fill="#E6E6E6"/>
<path id="Vector_96" d="M506.788 434.571H429.304C427.844 434.571 426.661 435.789 426.661 437.292V440.891C426.661 442.393 427.844 443.612 429.304 443.612H506.788C508.247 443.612 509.43 442.393 509.43 440.891V437.292C509.43 435.789 508.247 434.571 506.788 434.571Z" fill="#E6E6E6"/>
<path id="Vector_97" d="M542.587 559.139L536.445 572.67L532.252 581.912L525.039 620.794L521.428 624.74L518.334 610.77L485.952 618.173C484.89 612.097 485.668 618.378 485.012 611.713C485.197 611.522 485.391 611.332 485.585 611.142C486.102 610.648 486.536 610.182 486.527 609.735C486.158 586.743 487.266 547.614 496.52 523.909C497.969 520.038 499.88 516.368 502.209 512.983C502.394 512.726 502.569 512.47 502.745 512.213C507.011 506.061 509.708 500.004 513.532 495.696V495.687C513.555 495.667 513.577 495.645 513.596 495.62C513.61 495.613 513.623 495.603 513.633 495.592L539.899 481.253L541.026 513.848L541.829 537.278L542.587 559.139Z" fill="#3F3D56"/>
<path id="Vector_98" d="M675.003 594.897L664.196 577.308L698.119 549.465L712.121 533.494C713.94 531.419 716.257 529.872 718.838 529.007C721.42 528.142 724.177 527.99 726.834 528.567C729.491 529.143 731.954 530.427 733.978 532.29C736.001 534.153 737.515 536.531 738.367 539.185C739.629 543.118 739.357 547.402 737.61 551.133C735.862 554.864 732.775 557.75 729 559.182L706.858 567.581L675.003 594.897Z" fill="#FFB6B6"/>
<path id="Vector_99" d="M501.585 500.177L501.76 500.747L501.77 500.766L507.052 517.302L513.129 536.358L524.563 572.168L524.674 577.73V577.749L525.523 622.498L523.168 628.564L525.819 638.51C525.819 638.51 524.6 623.476 518.061 632.11C514.358 637.016 510.026 642.037 506.47 646.744C511.652 648.902 516.916 650.855 522.263 652.601C523.418 652.981 524.581 653.343 525.745 653.704C525.994 653.78 526.244 653.856 526.493 653.932C544.219 659.329 562.544 662.362 581.019 662.956C581.98 662.985 582.922 663.004 583.836 663.023C584.16 663.032 584.474 663.042 584.788 663.042C585.822 663.051 586.847 663.061 587.881 663.061C589.969 663.061 592.047 663.029 594.115 662.966C609.427 662.521 624.65 660.401 639.526 656.642C639.425 650.319 639.148 642.931 638.751 635.038C638.566 631.168 634.419 626.975 634.17 622.924C633.994 619.881 637.716 617.019 637.522 613.929C636.266 594.902 634.696 602.206 633.533 588.732C633.413 587.41 633.302 586.146 633.2 584.938C632.452 576.285 631.935 570.874 631.935 570.874L636.904 538.63L644.708 488.006L644.107 486.988L643.433 486.646L602.27 465.67L600.035 459.774C599.384 458.076 598.254 456.617 596.791 455.585C595.328 454.553 593.599 453.995 591.825 453.983L564.71 453.869C563.302 453.863 561.914 454.202 560.66 454.858C559.405 455.515 558.321 456.47 557.497 457.644L550.154 468.113L501.585 500.177Z" fill="#101010"/>
<path id="Vector_100" d="M625.525 568.042L633.196 584.942L635.874 590.828L643.085 629.706L646.684 633.642L649.785 619.676L651.242 619.368L677.52 613.765L685.18 638.81C686.906 635.848 687.586 632.364 687.105 628.946C686.624 625.528 685.011 622.386 682.539 620.05C682.016 619.563 681.58 619.089 681.593 618.64C682.029 591.597 680.422 542.218 665.913 521.894C661.305 515.445 658.54 509.021 654.518 504.533C654.505 504.52 654.505 504.507 654.493 504.507L644.704 488.005L644.106 486.992L643.434 486.645L625.525 568.042Z" fill="#101010"/>
<path id="Ellipse 5" d="M579.051 445.924C598.974 445.924 615.124 429.295 615.124 408.783C615.124 388.271 598.974 371.642 579.051 371.642C559.128 371.642 542.977 388.271 542.977 408.783C542.977 429.295 559.128 445.924 579.051 445.924Z" fill="#FFB6B6"/>
<path id="Vector_101" d="M627.809 382.84C627.529 382.533 627.192 382.286 626.818 382.116C626.444 381.945 626.04 381.854 625.631 381.848L626.173 380.298C626.35 379.809 626.398 379.281 626.312 378.768C626.225 378.254 626.008 377.774 625.682 377.375C625.355 376.976 624.932 376.674 624.455 376.499C623.978 376.325 623.465 376.283 622.967 376.38L620.992 376.772L621.178 375.413C621.249 374.907 621.192 374.391 621.01 373.915C620.829 373.439 620.531 373.019 620.144 372.698C619.758 372.377 619.297 372.165 618.807 372.082C618.317 372 617.814 372.051 617.349 372.229C616.925 372.401 616.47 372.473 616.016 372.439C615.562 372.406 615.121 372.269 614.726 372.037C614.328 371.813 613.984 371.502 613.715 371.126C613.447 370.751 613.261 370.319 613.171 369.862L612.483 366.444L612.41 366.261C609.058 360.51 602.614 356.325 594.729 354.791C587.71 353.416 580.512 354.116 573.574 354.775C570.822 355.042 567.713 355.342 565.122 356.975C562.92 358.376 561.058 361.176 561.439 364.002C554.598 361.843 547.263 366.153 543.628 371.587C539.321 378.056 538.616 386.158 538.503 392.492C538.195 407.48 541.199 419.741 547.408 428.943C547.862 429.61 547.975 431.002 548.874 431.469L548.688 431.16C549.691 431.677 550.711 432.511 550.331 433.403C549.238 435.97 556.5 441.646 561.617 443.522C570.951 446.948 583.362 446.656 592.09 445.422L592.397 443.297C595.546 442.855 597.765 442.013 598.388 440.696C599.489 439.729 600.428 438.862 601.246 438.062L601.254 438.054C601.27 438.037 601.303 438.012 601.319 437.995C605.262 434.103 606.176 431.886 606.589 428.51C606.986 425.201 606.282 421.841 605.561 418.816C620.733 421.233 599.586 402.178 613.722 398.494C613.884 398.443 614.049 398.401 614.216 398.369C614.628 398.269 615.041 398.169 615.438 398.052C617.35 397.518 619.181 396.713 620.879 395.66C624.829 393.184 626.133 389.9 628.173 386.199C628.467 385.672 628.591 385.062 628.525 384.458C628.46 383.854 628.209 383.287 627.809 382.84Z" fill="#101010"/>
<path id="Vector_102" d="M706.638 570.687C706.63 572.145 706.614 574.188 706.549 576.713C706.541 577.063 706.533 577.422 706.525 577.789C706.42 582.431 706.314 586.324 706.144 590.65C706.136 590.95 706.128 591.242 706.112 591.542C705.885 597.577 705.529 604.604 704.914 615.731C703.772 636.286 701.781 618.557 699.781 625.767C699.684 626.126 699.579 626.551 699.481 627.051C699.179 628.865 698.668 630.637 697.959 632.327C696.899 632.977 695.806 633.602 694.729 634.228C691.661 635.986 688.544 637.678 685.403 639.287C683.638 640.187 681.865 641.071 680.084 641.921C679.8 642.055 679.525 642.188 679.25 642.313C670.129 646.656 660.729 650.349 651.117 653.366C649.238 653.949 647.368 654.516 645.474 655.041C643.498 655.608 641.523 656.141 639.523 656.642C624.647 660.402 609.425 662.522 594.114 662.968C592.049 663.035 589.968 663.06 587.88 663.06C586.843 663.06 585.823 663.051 584.787 663.043C584.471 663.043 584.156 663.035 583.84 663.026C582.925 663.001 581.978 662.985 581.023 662.96C562.547 662.366 544.222 659.333 526.497 653.932L525.744 653.707C524.578 653.341 523.42 652.982 522.263 652.599C516.919 650.857 511.654 648.906 506.468 646.747C502.509 645.105 498.596 643.344 494.729 641.463C494.693 641.453 494.66 641.436 494.631 641.413C493.822 641.029 493.004 640.629 492.195 640.221C492.089 640.162 491.976 640.104 491.863 640.046C488.843 638.529 485.855 636.939 482.9 635.278C480.415 629.401 476.918 628.276 474.748 623.108C474.116 621.573 473.66 619.967 473.388 618.324C473.388 618.307 473.38 618.29 473.38 618.265C473.606 621.366 472.416 612.764 473.372 618.232C473.364 618.132 473.355 618.024 473.347 617.898C473.323 617.598 473.291 617.232 473.242 616.773C470.465 588.858 470.643 556.933 469.437 530.627C469.356 528.926 469.272 527.298 469.186 525.742C469.162 525.225 469.129 524.717 469.097 524.217C469.154 524.067 469.218 523.908 469.291 523.758C469.307 523.715 469.326 523.673 469.348 523.633C469.372 523.582 469.399 523.532 469.429 523.483C469.445 523.458 469.469 523.425 469.486 523.4C469.497 523.371 469.511 523.344 469.526 523.317C469.599 523.2 469.68 523.075 469.769 522.958C469.809 522.908 469.842 522.867 469.882 522.825C469.91 522.782 469.943 522.743 469.979 522.708C470.004 522.668 470.034 522.632 470.069 522.6C470.101 522.567 470.133 522.525 470.174 522.483C470.191 522.457 470.213 522.434 470.239 522.416C470.303 522.341 470.373 522.271 470.449 522.208C470.738 521.934 471.046 521.684 471.372 521.458C471.485 521.383 471.607 521.308 471.72 521.225C472.536 520.722 473.395 520.298 474.286 519.958C474.594 519.841 474.902 519.733 475.234 519.616C475.355 519.582 475.468 519.541 475.59 519.499C475.768 519.441 475.946 519.382 476.132 519.341C477.055 519.057 478.051 518.816 479.128 518.591C479.257 518.566 479.395 518.541 479.533 518.507C479.727 518.466 479.929 518.432 480.132 518.399C480.407 518.349 480.69 518.299 480.974 518.249C483.378 517.857 486.106 517.565 489.118 517.374C489.401 517.357 489.685 517.34 489.968 517.324C490.3 517.307 490.632 517.29 490.972 517.274C491.255 517.257 491.547 517.249 491.838 517.24C492.122 517.224 492.413 517.215 492.713 517.207C493.53 517.182 494.372 517.157 495.231 517.14C497.675 517.09 500.25 517.107 502.954 517.165C504.209 517.199 505.488 517.232 506.8 517.29C506.889 517.29 506.97 517.299 507.05 517.299C508.192 517.34 509.342 517.39 510.524 517.457C511.349 517.499 512.183 517.54 513.017 517.59C513.802 517.64 514.596 517.69 515.397 517.749C516.021 517.782 516.644 517.832 517.276 517.874C517.81 517.915 518.344 517.957 518.879 517.99L519.607 518.04C520.004 518.074 520.401 518.099 520.805 518.14C521.696 518.215 522.586 518.29 523.493 518.366C524.392 518.449 525.307 518.532 526.222 518.616C527.136 518.699 528.059 518.791 528.982 518.882C529.079 518.891 529.168 518.899 529.257 518.907C530.099 518.999 530.941 519.082 531.791 519.174C531.986 519.191 532.188 519.207 532.382 519.232C533.193 519.316 534.019 519.414 534.837 519.504C535.088 519.532 535.338 519.559 535.59 519.587C536.23 519.659 536.862 519.721 537.507 519.799C538.357 519.899 539.223 519.991 540.065 520.108C540.721 520.183 541.377 520.258 542.033 520.341C543.061 520.466 544.105 520.599 545.15 520.741C545.546 520.791 545.943 520.841 546.34 520.899C549.319 521.283 552.331 521.708 555.391 522.15C560.03 522.825 564.742 523.558 569.486 524.35C574.238 525.142 579.017 525.979 583.824 526.859C585.038 527.084 586.252 527.309 587.475 527.543C588.025 527.651 588.576 527.759 589.126 527.868C590.066 528.043 591.005 528.226 591.944 528.41C592.883 528.593 593.822 528.776 594.761 528.968C595.878 529.193 597.004 529.418 598.121 529.643C605.48 531.144 612.799 532.744 619.939 534.419C621.113 534.694 622.287 534.978 623.453 535.253C625.785 535.811 628.095 536.378 630.383 536.953C631.015 537.103 631.638 537.262 632.261 537.42C633.816 537.82 635.37 538.22 636.9 538.629L637.167 538.704C638.293 538.987 639.394 539.279 640.495 539.579C643.094 540.279 645.649 540.988 648.162 541.705C649.829 542.18 651.478 542.66 653.108 543.147C655.545 543.872 657.933 544.605 660.257 545.347C660.832 545.531 661.406 545.714 661.973 545.889C663.673 546.431 665.349 546.981 666.976 547.531C668.272 547.964 669.535 548.406 670.781 548.848C672.028 549.29 673.251 549.732 674.449 550.173C675.218 550.457 675.979 550.757 676.74 551.04C677.833 551.457 678.91 551.874 679.962 552.291C680.286 552.416 680.602 552.549 680.917 552.674C681.12 552.766 681.314 552.841 681.508 552.924C681.889 553.082 682.278 553.232 682.65 553.391C683.031 553.541 683.403 553.699 683.775 553.866C684.14 554.016 684.512 554.174 684.868 554.333C685.233 554.483 685.589 554.641 685.945 554.808C686.245 554.933 686.536 555.066 686.819 555.2C687.394 555.458 687.969 555.716 688.528 555.983C688.803 556.117 689.078 556.242 689.353 556.375L689.985 556.675C690.074 556.725 690.163 556.767 690.252 556.808C690.454 556.908 690.665 557.017 690.867 557.117C691.337 557.342 691.798 557.584 692.252 557.809C692.859 558.125 693.45 558.442 694.017 558.75C694.591 559.067 695.15 559.384 695.684 559.692C695.773 559.742 695.854 559.792 695.943 559.842C696.065 559.909 696.186 559.984 696.308 560.051C696.721 560.293 697.117 560.543 697.514 560.784C698.291 561.276 699.028 561.76 699.716 562.243C699.87 562.351 700.016 562.46 700.169 562.56C700.68 562.935 701.165 563.302 701.619 563.677C701.619 563.685 701.619 563.685 701.627 563.685C701.781 563.802 701.926 563.927 702.072 564.043C702.193 564.16 702.323 564.26 702.444 564.377C702.865 564.752 703.254 565.11 703.61 565.477C703.73 565.59 703.843 565.71 703.95 565.836C703.997 565.876 704.041 565.92 704.08 565.969C704.242 566.136 704.387 566.302 704.525 566.469C704.546 566.492 704.565 566.517 704.582 566.544C704.776 566.777 704.954 567.011 705.124 567.244C705.205 567.361 705.294 567.478 705.367 567.594C705.464 567.736 705.561 567.886 705.642 568.028C705.715 568.144 705.78 568.269 705.845 568.386C706.017 568.687 706.163 569.002 706.282 569.328C706.373 569.549 706.446 569.778 706.5 570.012C706.562 570.233 706.608 570.459 706.638 570.687Z" fill="#F79328"/>
<path id="Vector_103" d="M939.597 181.5H303.597V657.5H939.597V181.5Z" stroke="black"/>
</g>
</svg>
